<!-- icon666.com - MILLIONS vector ICONS FREE --><svg id="Layer_1" enable-background="new 0 0 52 52" viewBox="0 0 52 52" xmlns="http://www.w3.org/2000/svg"><g><path d="m46.9 18.1h-18.8l3.9-3.9c1.6-1.6 1.6-4.2 0-5.8s-4.1-1.6-5.7 0c-4.9 3.8-10.8 8.6-13.5 10.9-.4-1.3-1.5-2.2-2.9-2.2h-5.9c-1.7 0-3 1.3-3 3v21.5c0 1.7 1.3 3 3 3h5.9c1.6 0 2.9-1.3 3-2.9h1.8c2.5 2 5.5 3.1 8.7 3.1h11.4c2.7 0 4.1-2.1 4.1-4.1 0-1-.4-2-1-2.8 1.1-.8 1.7-2.1 1.7-3.4 0-1.1-.4-2-1-2.8 1.1-.8 1.7-2.1 1.7-3.4 0-.8-.2-1.5-.5-2.1h7.3c2.3 0 4.1-1.8 4.1-4.1-.2-2.2-2-4-4.3-4zm-36 23.4c0 .6-.4 1-1 1h-5.9c-.6 0-1-.4-1-1v-21.4c0-.6.4-1 1-1h5.9c.6 0 1 .4 1 1zm36-17.2h-11.8c-.6 0-1 .4-1 1s.4 1 1 1h1c1.6 0 2.1 1.3 2.1 2.1 0 1.6-1.1 2.1-2.7 2.1-.6 0-1 .4-1 1s.4 1 1 1c1.6 0 2.1 1.3 2.1 2.1 0 1.6-1.1 2.1-2.7 2.1-.6 0-1 .4-1 1s.4 1 1 1c1.6 0 2.1 1.3 2.1 2.1s-.4 2.1-2.1 2.1h-11.5c-2.8 0-5.6-1-7.7-2.8 0 0-.1 0-.1-.1-.1 0-.1-.1-.2-.1s-.1 0-.2 0h-.1-2.2v-18.2c1.7-1.4 8.9-7.3 14.6-11.8 0 0 .1-.1.1-.1.8-.8 2.2-.8 2.9 0 .8.8.8 2.1 0 2.9l-5.5 5.7c-.4.4-.4 1 0 1.4.2.2.5.3.7.3h21.2c1.1 0 2.1.9 2.1 2.1s-.9 2.1-2.1 2.1z" fill="#000000" style="fill: rgb(255, 255, 255);"></path></g></svg>