<?xml version="1.0" standalone="no"?>
<!DOCTYPE svg PUBLIC "-//W3C//DTD SVG 20010904//EN"
 "http://www.w3.org/TR/2001/REC-SVG-20010904/DTD/svg10.dtd">
<svg version="1.0" xmlns="http://www.w3.org/2000/svg"
 width="512.000000pt" height="512.000000pt" viewBox="0 0 512.000000 512.000000"
 preserveAspectRatio="xMidYMid meet">

<g transform="translate(0.000000,512.000000) scale(0.100000,-0.100000)"
fill="#000000" stroke="none">
<path d="M1197 4690 c-588 -107 -1038 -545 -1169 -1138 -30 -132 -32 -469 -5
-607 79 -395 265 -771 603 -1215 294 -387 736 -837 1226 -1248 222 -187 431
-265 708 -265 210 -1 378 44 550 148 165 100 676 564 972 883 597 642 910
1166 1015 1697 25 129 25 466 0 585 -125 596 -553 1027 -1147 1156 -123 27
-352 25 -477 -4 -203 -48 -377 -127 -535 -244 -133 -99 -242 -219 -365 -404
-13 -19 -13 -19 -25 0 -168 251 -329 404 -548 520 -251 132 -549 182 -803 136z
m325 -424 c399 -77 720 -393 803 -792 9 -43 20 -139 24 -211 7 -126 9 -135 37
-175 86 -123 262 -123 348 0 28 40 30 49 37 175 4 72 15 168 24 211 84 404
409 720 819 796 246 46 567 -72 780 -286 123 -122 220 -289 267 -459 33 -122
38 -383 10 -521 -76 -369 -314 -787 -719 -1262 -226 -265 -785 -805 -1007
-973 -194 -147 -451 -171 -666 -63 -124 62 -395 298 -749 653 -346 347 -517
550 -721 854 -191 287 -310 547 -360 790 -28 140 -24 400 10 522 79 285 271
520 531 650 191 95 359 124 532 91z"/>
</g>
</svg>
