<?xml version="1.0" encoding="UTF-8"?>
<!DOCTYPE svg PUBLIC "-//W3C//DTD SVG 1.1//EN" "http://www.w3.org/Graphics/SVG/1.1/DTD/svg11.dtd">
<svg xmlns="http://www.w3.org/2000/svg" version="1.1" width="512px" height="512px" style="shape-rendering:geometricPrecision; text-rendering:geometricPrecision; image-rendering:optimizeQuality; fill-rule:evenodd; clip-rule:evenodd" xmlns:xlink="http://www.w3.org/1999/xlink">
<g><path style="opacity:1" fill="#fefefe" d="M -0.5,-0.5 C 79.8333,-0.5 160.167,-0.5 240.5,-0.5C 190.863,7.97083 156.029,35.3042 136,81.5C 120.308,127.993 127.308,170.66 157,209.5C 195.992,252.041 243.158,264.875 298.5,248C 348.543,227.95 376.71,191.117 383,137.5C 385.002,85.3324 364.168,45.1657 320.5,17C 303.174,7.59307 284.841,1.75974 265.5,-0.5C 347.5,-0.5 429.5,-0.5 511.5,-0.5C 511.5,170.167 511.5,340.833 511.5,511.5C 484.167,511.5 456.833,511.5 429.5,511.5C 439.18,509.319 445.013,503.319 447,493.5C 446.209,422.74 416.709,367.574 358.5,328C 300.04,293.416 239.374,289.083 176.5,315C 110.877,347.707 73.3765,400.54 64,473.5C 63.3333,480.833 63.3333,488.167 64,495.5C 66.685,503.35 71.8517,508.684 79.5,511.5C 52.8333,511.5 26.1667,511.5 -0.5,511.5C -0.5,340.833 -0.5,170.167 -0.5,-0.5 Z"/></g>
<g><path style="opacity:1" fill="#020202" d="M 240.5,-0.5 C 248.833,-0.5 257.167,-0.5 265.5,-0.5C 284.841,1.75974 303.174,7.59307 320.5,17C 364.168,45.1657 385.002,85.3324 383,137.5C 376.71,191.117 348.543,227.95 298.5,248C 243.158,264.875 195.992,252.041 157,209.5C 127.308,170.66 120.308,127.993 136,81.5C 156.029,35.3042 190.863,7.97083 240.5,-0.5 Z"/></g>
<g><path style="opacity:1" fill="#fdfdfd" d="M 241.5,42.5 C 282.977,38.8156 313.477,55.149 333,91.5C 346.378,124.213 342.378,154.546 321,182.5C 293.014,211.934 259.847,219.767 221.5,206C 181.817,185.469 165.317,152.969 172,108.5C 182.41,72.9201 205.577,50.9201 241.5,42.5 Z"/></g>
<g><path style="opacity:1" fill="#020202" d="M 429.5,511.5 C 426.5,511.5 423.5,511.5 420.5,511.5C 414.687,509.005 410.187,505.005 407,499.5C 406.492,448.33 386.992,406.164 348.5,373C 311.174,345.254 269.507,335.587 223.5,344C 160.367,361.132 121.867,401.632 108,465.5C 106.935,474.802 106.268,484.135 106,493.5C 104.086,502.91 98.5859,508.91 89.5,511.5C 86.1667,511.5 82.8333,511.5 79.5,511.5C 71.8517,508.684 66.685,503.35 64,495.5C 63.3333,488.167 63.3333,480.833 64,473.5C 73.3765,400.54 110.877,347.707 176.5,315C 239.374,289.083 300.04,293.416 358.5,328C 416.709,367.574 446.209,422.74 447,493.5C 445.013,503.319 439.18,509.319 429.5,511.5 Z"/></g>
<g><path style="opacity:1" fill="#fefefe" d="M 420.5,511.5 C 310.167,511.5 199.833,511.5 89.5,511.5C 98.5859,508.91 104.086,502.91 106,493.5C 106.268,484.135 106.935,474.802 108,465.5C 121.867,401.632 160.367,361.132 223.5,344C 269.507,335.587 311.174,345.254 348.5,373C 386.992,406.164 406.492,448.33 407,499.5C 410.187,505.005 414.687,509.005 420.5,511.5 Z"/></g>
</svg>
