<?xml version="1.0" standalone="no"?>
<!DOCTYPE svg PUBLIC "-//W3C//DTD SVG 20010904//EN"
 "http://www.w3.org/TR/2001/REC-SVG-20010904/DTD/svg10.dtd">
<svg version="1.0" xmlns="http://www.w3.org/2000/svg"
 width="512.000000pt" height="512.000000pt" viewBox="0 0 512.000000 512.000000"
 preserveAspectRatio="xMidYMid meet">

<g transform="translate(0.000000,512.000000) scale(0.100000,-0.100000)"
fill="#000000" stroke="none">
<path d="M2430 5114 c-14 -2 -56 -9 -95 -15 -96 -16 -256 -69 -351 -117 -404
-206 -666 -600 -700 -1051 l-7 -91 -351 0 c-401 0 -442 -5 -576 -71 -117 -58
-221 -162 -279 -279 -75 -153 -72 -89 -69 -1408 l3 -1177 28 -100 c105 -384
388 -666 774 -773 l98 -27 1610 -3 c1441 -3 1620 -1 1708 13 420 69 749 370
865 792 l27 98 3 1177 c3 1319 6 1255 -69 1408 -58 117 -162 221 -279 279
-134 66 -175 71 -576 71 l-351 0 -7 91 c-19 249 -108 485 -260 689 -48 64
-180 192 -257 250 -139 103 -327 187 -509 226 -71 15 -327 27 -380 18z m300
-438 c94 -20 215 -69 290 -118 93 -59 226 -199 277 -289 59 -104 103 -241 110
-345 l6 -84 -853 0 -853 0 6 84 c7 104 51 241 110 345 51 90 184 230 277 289
73 48 196 98 285 117 80 18 264 18 345 1z m-1450 -1499 c0 -231 0 -233 26
-286 66 -132 229 -157 334 -52 64 64 70 95 70 355 l0 216 850 0 850 0 0 -216
c0 -260 6 -291 70 -355 105 -105 268 -79 334 52 26 53 26 54 26 286 l0 234
358 -3 358 -3 37 -25 c21 -14 50 -43 65 -64 l27 -39 0 -1176 0 -1176 -26 -67
c-77 -197 -226 -341 -414 -401 l-70 -22 -1615 0 -1615 0 -70 22 c-188 60 -337
204 -414 401 l-26 67 0 1177 0 1176 31 43 c18 24 51 54 75 66 41 23 48 23 391
23 l348 0 0 -233z"/>
</g>
</svg>
