<?xml version="1.0" standalone="no"?>
<!DOCTYPE svg PUBLIC "-//W3C//DTD SVG 20010904//EN"
 "http://www.w3.org/TR/2001/REC-SVG-20010904/DTD/svg10.dtd">
<svg version="1.0" xmlns="http://www.w3.org/2000/svg"
 width="512.000000pt" height="512.000000pt" viewBox="0 0 512.000000 512.000000"
 preserveAspectRatio="xMidYMid meet">
<metadata>
Created by potrace 1.16, written by Peter Selinger 2001-2019
</metadata>
<g transform="translate(0.000000,512.000000) scale(0.100000,-0.100000)"
fill="#000000" stroke="none">
<path d="M2420 5113 c-423 -45 -810 -315 -1004 -702 -206 -408 -173 -903 87
-1291 64 -96 241 -273 337 -337 272 -182 590 -255 907 -207 414 61 772 323
962 702 78 155 131 383 131 562 0 234 -78 497 -204 693 -120 185 -307 352
-504 451 -207 104 -481 154 -712 129z m309 -438 c404 -85 681 -427 681 -840 0
-467 -378 -845 -845 -845 -414 0 -755 278 -842 685 -11 50 -14 108 -10 200 3
113 8 143 36 225 18 52 51 129 74 169 51 90 184 230 277 289 73 48 196 98 285
117 82 18 259 18 344 0z"/>
<path d="M2300 2115 c-623 -85 -1171 -478 -1453 -1041 -133 -265 -199 -528
-201 -800 -1 -126 0 -132 27 -172 39 -60 93 -93 164 -99 79 -7 154 31 196 99
26 42 30 58 38 186 14 233 64 416 164 610 76 145 153 250 275 372 357 356 860
506 1360 404 273 -56 537 -200 740 -404 273 -274 415 -592 439 -982 8 -122 12
-143 35 -183 69 -118 234 -138 331 -41 65 66 76 129 54 337 -43 432 -226 827
-528 1142 -303 316 -684 510 -1124 572 -125 18 -387 18 -517 0z"/>
</g>
</svg>
