<?xml version="1.0" standalone="no"?>
<!DOCTYPE svg PUBLIC "-//W3C//DTD SVG 20010904//EN"
 "http://www.w3.org/TR/2001/REC-SVG-20010904/DTD/svg10.dtd">
<svg version="1.0" xmlns="http://www.w3.org/2000/svg"
 width="45px" height="45px" viewBox="0 0 512.000000 512.000000"
 preserveAspectRatio="xMidYMid meet">

<g transform="translate(0.000000,512.000000) scale(0.100000,-0.100000)"
fill="#000000" stroke="none">
<path d="M1780 5113 c-423 -45 -810 -315 -1004 -702 -206 -408 -173 -903 87
-1291 64 -96 241 -273 337 -337 272 -182 590 -255 907 -207 414 61 772 323
962 702 78 155 131 383 131 562 0 234 -78 497 -204 693 -120 185 -307 352
-504 451 -207 104 -481 154 -712 129z m309 -438 c404 -85 681 -427 681 -840 0
-467 -378 -845 -845 -845 -414 0 -755 278 -842 685 -11 50 -14 108 -10 200 3
113 8 143 36 225 18 52 51 129 74 169 51 90 184 230 277 289 73 48 196 98 285
117 82 18 259 18 344 0z"/>
<path d="M3750 3426 c-115 -31 -228 -120 -283 -223 -39 -73 -60 -182 -52 -263
7 -70 42 -185 77 -253 88 -176 295 -414 545 -628 146 -126 198 -146 295 -117
52 15 203 141 363 302 333 334 468 610 414 845 -49 215 -270 377 -467 343 -87
-14 -182 -63 -241 -122 -55 -55 -115 -166 -126 -232 l-8 -42 -16 65 c-57 228
-294 382 -501 325z"/>
<path d="M1690 2119 c-291 -38 -594 -149 -824 -303 -495 -332 -799 -840 -857
-1430 -15 -159 -9 -235 25 -286 38 -58 93 -91 163 -97 79 -7 154 31 196 99 26
42 30 58 38 186 14 233 64 416 164 610 76 145 153 250 275 372 357 356 860
506 1360 404 273 -56 537 -200 740 -404 273 -274 415 -592 439 -982 8 -122 12
-143 35 -183 69 -118 234 -138 331 -41 65 66 76 129 54 337 -43 430 -225 825
-524 1137 -312 327 -713 527 -1165 582 -98 12 -356 11 -450 -1z"/>
</g>
</svg>
